Coordinates
version=1
nRows=11
nColumns=36
inDegrees=yes

Units are S.I. units (second, meters, Newtons, ...)
If the header above contains a line with 'inDegrees', this indicates whether rotational values are in degrees (yes) or radians (no).

endheader
time	pelvis_tilt	pelvis_list	pelvis_rotation	pelvis_tx	pelvis_ty	pelvis_tz	hip_flexion_r	hip_adduction_r	hip_rotation_r	knee_angle_r	knee_angle_r_beta	ankle_angle_r	subtalar_angle_r	mtp_angle_r	hip_flexion_l	hip_adduction_l	hip_rotation_l	knee_angle_l	knee_angle_l_beta	ankle_angle_l	subtalar_angle_l	mtp_angle_l	lumbar_extension	lumbar_bending	lumbar_rotation	arm_flex_r	arm_add_r	arm_rot_r	elbow_flex_r	pro_sup_r	arm_flex_l	arm_add_l	arm_rot_l	elbow_flex_l	pro_sup_l
     15.66666670	     -5.67612533	      0.46293872	     -4.90679947	      0.65787917	      0.88016127	     -0.28919138	      2.54735582	     -6.45533959	      5.04943396	      1.30129203	      0.02271183	      4.81020892	    -17.49360448	     -7.49999987	     -0.64028206	     -6.94439662	     -4.76930280	      0.41660543	      0.00727114	      7.98095713	     -4.83298524	     -7.49999987	      1.51337303	      0.32977559	     -3.99354089	     28.54015238	     10.25129096	     69.92862492	    125.44747620	     99.91463766	     39.20971393	     12.78399068	     64.37593473	    122.75441744	     85.07087453
     15.68333330	     -5.48279448	      0.37838300	     -4.83133131	      0.65816833	      0.88216737	     -0.28887509	      2.22937993	     -6.35087364	      4.80222830	      1.19315375	      0.02082446	      4.83694953	    -17.16187227	     -7.49999987	     -0.85951831	     -7.03555214	     -4.77490218	      0.40351963	      0.00704275	      7.90115505	     -4.69211862	     -7.49999987	      1.25720588	      0.38537657	     -4.07621239	     28.59451926	     10.26109014	     70.28102631	    125.28921402	     96.51627062	     39.15529011	     12.68952805	     64.62923825	    122.85551052	     83.21794685
     15.70000000	     -5.49251703	      0.38784565	     -4.86350515	      0.65787955	      0.87969039	     -0.28895764	      2.20154216	     -6.34687607	      4.76949575	      1.15492182	      0.02015719	      4.85757023	    -17.08502849	     -7.49999987	     -0.87044522	     -7.04595221	     -4.96488225	      0.39855036	      0.00695602	      7.99547425	     -4.50357384	     -7.49999987	      1.28569279	      0.30514370	     -3.96836932	     28.50990622	     10.27060561	     70.08078519	    125.35699471	    100.64340356	     39.04306296	     12.69414831	     64.78462252	    123.00857452	     85.62715495
     15.71666670	     -5.51198819	      0.39669573	     -4.87612089	      0.65503334	      0.87903005	     -0.29154813	      2.25237831	     -6.36771321	      4.74583235	      1.16050925	      0.02025471	      4.85294142	    -17.08985677	     -7.49999987	     -0.84494463	     -7.03728941	     -4.96555750	      0.38794895	      0.00677099	      8.03015573	     -4.49729578	     -7.49999987	      1.26480632	      0.31609298	     -3.99625240	     28.57853207	     10.25010197	     70.05499857	    125.36671740	    100.64245748	     39.08380143	     12.72094084	     64.79323380	    123.02115993	     85.63059123
     15.73333330	     -5.49136287	      0.36092138	     -4.83832257	      0.65823838	      0.87959242	     -0.28857956	      2.22533937	     -6.30132892	      4.75613048	      1.19061776	      0.02078020	      4.83351936	    -17.07324430	     -7.49999987	     -0.87459518	     -7.11031053	     -4.93907831	      0.39540049	      0.00690104	      8.06597917	     -4.47838769	     -7.49999987	      1.30280549	      0.21926514	     -3.95616054	     28.62074464	     10.25906345	     70.04689883	    125.36780426	    100.64207375	     39.04030908	     12.70085939	     64.82563224	    123.06091724	     85.63516029
     15.75000000	     -5.30345886	      0.28359529	     -4.86016525	      0.65871626	      0.87977887	     -0.28842160	      2.01832530	     -6.21425877	      4.54672422	      1.22060597	      0.02130359	      4.98192214	    -16.72933277	     -7.49999987	     -1.13734027	     -7.19741357	     -5.11660907	      0.37065152	      0.00646909	      8.25684474	     -4.01908994	     -7.49999987	      1.13421280	      0.31092121	     -3.94828438	     28.71083428	     10.24448198	     70.12848091	    125.39190894	     98.78355010	     38.91328072	     12.55849862	     65.01689678	    123.30427823	     84.60501561
     15.76666670	     -5.29048115	      0.24798746	     -4.92600522	      0.65806239	      0.88183155	     -0.28844187	      2.02233414	     -6.15513978	      4.59468792	      1.24342686	      0.02170189	      4.95502884	    -16.70740728	     -7.49999987	     -1.19513944	     -7.25983777	     -5.31425429	      0.36308758	      0.00633707	      8.32708711	     -3.76396898	     -7.49999987	      1.13869274	      0.33147990	     -3.82287446	     28.61071780	     10.21936264	     70.06137951	    125.35989348	    100.86822138	     38.73548617	     12.48288921	     65.10790563	    123.35953066	     86.10307293
     15.78333330	     -5.31850019	      0.26244323	     -4.94185839	      0.65516323	      0.87656358	     -0.29158684	      2.10171382	     -6.19907614	      4.58806328	      1.24549957	      0.02173807	      4.97352788	    -16.75356073	     -7.49999987	     -1.13015071	     -7.21607454	     -5.41961467	      0.35774317	      0.00624380	      8.37245264	     -3.71342781	     -7.49999987	      1.13228975	      0.36748195	     -3.76665170	     28.79409222	     10.02202899	     69.75018388	    125.28851796	    100.75274685	     38.96916484	     12.56248762	     64.96986532	    123.35888307	     86.14321385
     15.80000000	     -5.25552816	      0.28924027	     -4.88810933	      0.65457508	      0.87453729	     -0.29215120	      2.06753351	     -6.28084092	      4.43433625	      1.22387893	      0.02136072	      5.20442472	    -16.57587974	     -7.49999987	     -1.13825371	     -7.14839511	     -5.50402427	      0.35883262	      0.00626281	      8.59640987	     -3.46095911	     -7.49999987	      1.07060375	      0.38320725	     -3.96144984	     28.97632392	      9.89487581	     69.73054956	    125.38918980	     97.20803382	     39.24140144	     12.58271136	     64.72202665	    123.42429519	     84.06168858
     15.81666670	     -5.37930693	      0.33024789	     -4.92950776	      0.65514033	      0.87485478	     -0.29183115	      2.25525223	     -6.34225395	      4.71650144	      1.24045533	      0.02165003	      5.10133760	    -17.09158558	     -7.49999987	     -0.96654357	     -7.08802676	     -5.46961158	      0.35660524	      0.00622394	      8.58246000	     -3.79057181	     -7.49999987	      1.22697643	      0.38645447	     -3.85885611	     29.15391966	      9.84890441	     69.64970152	    125.49693829	     97.79436188	     39.46763225	     12.72241743	     64.66099187	    123.39821600	     84.36730325
     15.83333330	     -6.22922962	      0.44684711	     -4.91508623	      0.65471874	      0.87798379	     -0.29191727	      3.32507526	     -6.43681026	      4.32653108	      1.46740168	      0.02561099	      5.76735601	    -16.18670097	     -7.49999987	      0.00549774	     -7.01460020	     -5.49311668	      0.36933615	      0.00644613	      8.52245868	     -3.76704651	     -7.49999987	      2.39945995	      0.38654347	     -3.89914022	     28.73047365	      9.64971911	     69.69190823	    125.81707184	     94.90068511	     38.94878832	     12.51803371	     64.71197516	    123.56887341	     82.70752572
